<?xml version="1.0" encoding="UTF-8"?>
<svg xmlns="http://www.w3.org/2000/svg" xmlns:xlink="http://www.w3.org/1999/xlink" width="187.5pt" height="187.499995pt" viewBox="0 0 187.5 187.499995" version="1.2">
<defs>
<clipPath id="clip1">
  <path d="M 0 0 L 187 0 L 187 187 L 0 187 Z M 0 0 "/>
</clipPath>
</defs>
<g id="surface1">
<g clip-path="url(#clip1)" clip-rule="nonzero">
<path style=" stroke:none;fill-rule:nonzero;fill:rgb(6.269836%,5.879211%,5.099487%);fill-opacity:1;" d="M 171.875 181.25 L 15.625 181.25 C 10.449219 181.25 6.25 177.050781 6.25 171.875 L 6.25 31.25 L 181.25 31.25 L 181.25 171.875 C 181.25 177.050781 177.050781 181.25 171.875 181.25 Z M 15.625 6.25 L 171.875 6.25 C 177.050781 6.25 181.25 10.449219 181.25 15.625 L 181.25 25 L 6.25 25 L 6.25 15.625 C 6.25 10.449219 10.449219 6.25 15.625 6.25 Z M 171.875 0 L 15.625 0 C 7.007812 0 0 7.007812 0 15.625 L 0 171.875 C 0 180.492188 7.007812 187.5 15.625 187.5 L 171.875 187.5 C 180.492188 187.5 187.5 180.492188 187.5 171.875 L 187.5 15.625 C 187.5 7.007812 180.492188 0 171.875 0 "/>
</g>
<path style=" stroke:none;fill-rule:nonzero;fill:rgb(6.269836%,5.879211%,5.099487%);fill-opacity:1;" d="M 18.75 18.75 L 12.5 18.75 L 12.5 12.5 L 18.75 12.5 L 18.75 18.75 "/>
<path style=" stroke:none;fill-rule:nonzero;fill:rgb(6.269836%,5.879211%,5.099487%);fill-opacity:1;" d="M 31.25 18.75 L 25 18.75 L 25 12.5 L 31.25 12.5 L 31.25 18.75 "/>
<path style=" stroke:none;fill-rule:nonzero;fill:rgb(6.269836%,5.879211%,5.099487%);fill-opacity:1;" d="M 43.75 18.75 L 37.5 18.75 L 37.5 12.5 L 43.75 12.5 L 43.75 18.75 "/>
<path style=" stroke:none;fill-rule:nonzero;fill:rgb(6.269836%,5.879211%,5.099487%);fill-opacity:1;" d="M 28.125 168.75 C 26.402344 168.75 25 167.347656 25 165.625 L 25 46.875 C 25 45.152344 26.402344 43.75 28.125 43.75 C 29.847656 43.75 31.25 45.152344 31.25 46.875 L 31.25 165.625 C 31.25 167.347656 29.847656 168.75 28.125 168.75 "/>
<path style=" stroke:none;fill-rule:nonzero;fill:rgb(6.269836%,5.879211%,5.099487%);fill-opacity:1;" d="M 56.25 68.75 C 55.445312 68.75 54.652344 68.445312 54.039062 67.835938 L 44.664062 58.460938 C 43.445312 57.238281 43.445312 55.261719 44.664062 54.039062 L 54.039062 44.664062 C 55.261719 43.445312 57.238281 43.445312 58.460938 44.664062 C 59.679688 45.886719 59.679688 47.863281 58.460938 49.085938 L 51.292969 56.25 L 58.460938 63.414062 C 59.679688 64.636719 59.679688 66.613281 58.460938 67.835938 C 57.847656 68.445312 57.054688 68.75 56.25 68.75 "/>
<path style=" stroke:none;fill-rule:nonzero;fill:rgb(6.269836%,5.879211%,5.099487%);fill-opacity:1;" d="M 81.25 68.75 C 80.445312 68.75 79.652344 68.445312 79.039062 67.835938 C 77.820312 66.613281 77.820312 64.636719 79.039062 63.414062 L 86.207031 56.25 L 79.039062 49.085938 C 77.820312 47.863281 77.820312 45.886719 79.039062 44.664062 C 80.261719 43.445312 82.238281 43.445312 83.460938 44.664062 L 92.835938 54.039062 C 94.054688 55.261719 94.054688 57.238281 92.835938 58.460938 L 83.460938 67.835938 C 82.847656 68.445312 82.054688 68.75 81.25 68.75 "/>
<path style=" stroke:none;fill-rule:nonzero;fill:rgb(6.269836%,5.879211%,5.099487%);fill-opacity:1;" d="M 65.625 71.875 C 65.378906 71.875 65.125 71.851562 64.867188 71.777344 C 63.195312 71.363281 62.171875 69.664062 62.597656 67.992188 L 68.847656 42.992188 C 69.261719 41.320312 70.960938 40.28125 72.632812 40.722656 C 74.304688 41.136719 75.328125 42.835938 74.902344 44.507812 L 68.652344 69.507812 C 68.296875 70.921875 67.027344 71.875 65.625 71.875 "/>
<path style=" stroke:none;fill-rule:nonzero;fill:rgb(6.269836%,5.879211%,5.099487%);fill-opacity:1;" d="M 65.625 90.625 L 53.125 90.625 L 53.125 84.375 L 65.625 84.375 L 65.625 90.625 "/>
<path style=" stroke:none;fill-rule:nonzero;fill:rgb(6.269836%,5.879211%,5.099487%);fill-opacity:1;" d="M 90.625 90.625 L 71.875 90.625 L 71.875 84.375 L 90.625 84.375 L 90.625 90.625 "/>
<path style=" stroke:none;fill-rule:nonzero;fill:rgb(6.269836%,5.879211%,5.099487%);fill-opacity:1;" d="M 125 103.125 L 65.625 103.125 L 65.625 96.875 L 125 96.875 L 125 103.125 "/>
<path style=" stroke:none;fill-rule:nonzero;fill:rgb(6.269836%,5.879211%,5.099487%);fill-opacity:1;" d="M 162.5 103.125 L 134.375 103.125 L 134.375 96.875 L 162.5 96.875 L 162.5 103.125 "/>
<path style=" stroke:none;fill-rule:nonzero;fill:rgb(6.269836%,5.879211%,5.099487%);fill-opacity:1;" d="M 71.875 115.625 L 65.625 115.625 L 65.625 109.375 L 71.875 109.375 L 71.875 115.625 "/>
<path style=" stroke:none;fill-rule:nonzero;fill:rgb(6.269836%,5.879211%,5.099487%);fill-opacity:1;" d="M 134.375 115.625 L 78.125 115.625 L 78.125 109.375 L 134.375 109.375 L 134.375 115.625 "/>
<path style=" stroke:none;fill-rule:nonzero;fill:rgb(6.269836%,5.879211%,5.099487%);fill-opacity:1;" d="M 162.5 115.625 L 140.625 115.625 L 140.625 109.375 L 162.5 109.375 L 162.5 115.625 "/>
<path style=" stroke:none;fill-rule:nonzero;fill:rgb(6.269836%,5.879211%,5.099487%);fill-opacity:1;" d="M 65.625 128.125 L 53.125 128.125 L 53.125 121.875 L 65.625 121.875 L 65.625 128.125 "/>
<path style=" stroke:none;fill-rule:nonzero;fill:rgb(6.269836%,5.879211%,5.099487%);fill-opacity:1;" d="M 90.625 128.125 L 71.875 128.125 L 71.875 121.875 L 90.625 121.875 L 90.625 128.125 "/>
<path style=" stroke:none;fill-rule:nonzero;fill:rgb(6.269836%,5.879211%,5.099487%);fill-opacity:1;" d="M 125 140.625 L 65.625 140.625 L 65.625 134.375 L 125 134.375 L 125 140.625 "/>
<path style=" stroke:none;fill-rule:nonzero;fill:rgb(6.269836%,5.879211%,5.099487%);fill-opacity:1;" d="M 162.5 140.625 L 134.375 140.625 L 134.375 134.375 L 162.5 134.375 L 162.5 140.625 "/>
<path style=" stroke:none;fill-rule:nonzero;fill:rgb(6.269836%,5.879211%,5.099487%);fill-opacity:1;" d="M 100 153.125 L 65.625 153.125 L 65.625 146.875 L 100 146.875 L 100 153.125 "/>
<path style=" stroke:none;fill-rule:nonzero;fill:rgb(6.269836%,5.879211%,5.099487%);fill-opacity:1;" d="M 112.5 153.125 L 106.25 153.125 L 106.25 146.875 L 112.5 146.875 L 112.5 153.125 "/>
<path style=" stroke:none;fill-rule:nonzero;fill:rgb(6.269836%,5.879211%,5.099487%);fill-opacity:1;" d="M 150 153.125 L 125 153.125 L 125 146.875 L 150 146.875 L 150 153.125 "/>
<path style=" stroke:none;fill-rule:nonzero;fill:rgb(6.269836%,5.879211%,5.099487%);fill-opacity:1;" d="M 65.625 168.75 L 53.125 168.75 L 53.125 162.5 L 65.625 162.5 L 65.625 168.75 "/>
<path style=" stroke:none;fill-rule:nonzero;fill:rgb(6.269836%,5.879211%,5.099487%);fill-opacity:1;" d="M 90.625 168.75 L 71.875 168.75 L 71.875 162.5 L 90.625 162.5 L 90.625 168.75 "/>
</g>
</svg>
