<?xml version="1.0" encoding="UTF-8"?>
<svg xmlns="http://www.w3.org/2000/svg" xmlns:xlink="http://www.w3.org/1999/xlink" width="187.5pt" height="187.499995pt" viewBox="0 0 187.5 187.499995" version="1.2">
<defs>
<clipPath id="clip1">
  <path d="M 0 19.714844 L 187 19.714844 L 187 168.214844 L 0 168.214844 Z M 0 19.714844 "/>
</clipPath>
</defs>
<g id="surface1">
<g clip-path="url(#clip1)" clip-rule="nonzero">
<path style=" stroke:none;fill-rule:nonzero;fill:rgb(0%,0%,0%);fill-opacity:1;" d="M 167.929688 168.355469 L 19.570312 168.355469 C 8.808594 168.355469 0.0507812 159.578125 0.0507812 148.796875 L 0.0507812 62.742188 C 0.0507812 51.964844 8.808594 43.183594 19.570312 43.183594 L 68.597656 43.183594 C 70.277344 43.183594 71.769531 42.113281 72.308594 40.507812 L 76.546875 27.734375 C 78.148438 22.9375 82.613281 19.714844 87.667969 19.714844 L 131.074219 19.714844 C 136.117188 19.714844 140.585938 22.9375 142.183594 27.734375 L 146.433594 40.507812 C 146.957031 42.113281 148.449219 43.183594 150.132812 43.183594 L 167.929688 43.183594 C 178.691406 43.183594 187.449219 51.964844 187.449219 62.742188 L 187.449219 148.796875 C 187.449219 159.578125 178.691406 168.355469 167.929688 168.355469 Z M 19.570312 51.007812 C 13.113281 51.007812 7.859375 56.273438 7.859375 62.742188 L 7.859375 148.796875 C 7.859375 155.269531 13.113281 160.535156 19.570312 160.535156 L 167.929688 160.535156 C 174.386719 160.535156 179.640625 155.269531 179.640625 148.796875 L 179.640625 62.742188 C 179.640625 56.273438 174.386719 51.007812 167.929688 51.007812 L 150.132812 51.007812 C 145.089844 51.007812 140.625 47.785156 139.023438 42.988281 L 134.773438 30.214844 C 134.246094 28.609375 132.753906 27.539062 131.066406 27.539062 L 87.660156 27.539062 C 85.980469 27.539062 84.488281 28.609375 83.949219 30.214844 L 79.710938 42.988281 C 78.117188 47.785156 73.652344 51.007812 68.597656 51.007812 Z M 19.570312 51.007812 "/>
</g>
<path style=" stroke:none;fill-rule:nonzero;fill:rgb(0%,0%,0%);fill-opacity:1;" d="M 109.367188 152.710938 C 83.527344 152.710938 62.515625 131.65625 62.515625 105.769531 C 62.515625 79.882812 83.527344 58.832031 109.367188 58.832031 C 135.203125 58.832031 156.21875 79.882812 156.21875 105.769531 C 156.21875 131.65625 135.203125 152.710938 109.367188 152.710938 Z M 109.367188 66.65625 C 87.839844 66.65625 70.324219 84.203125 70.324219 105.769531 C 70.324219 127.339844 87.839844 144.886719 109.367188 144.886719 C 130.894531 144.886719 148.410156 127.339844 148.410156 105.769531 C 148.410156 84.203125 130.894531 66.65625 109.367188 66.65625 Z M 109.367188 66.65625 "/>
<path style=" stroke:none;fill-rule:nonzero;fill:rgb(0%,0%,0%);fill-opacity:1;" d="M 109.367188 137.0625 C 92.140625 137.0625 78.132812 123.027344 78.132812 105.769531 C 78.132812 88.511719 92.140625 74.476562 109.367188 74.476562 C 126.59375 74.476562 140.601562 88.511719 140.601562 105.769531 C 140.601562 123.027344 126.59375 137.0625 109.367188 137.0625 Z M 109.367188 82.300781 C 96.453125 82.300781 85.941406 92.832031 85.941406 105.769531 C 85.941406 118.710938 96.453125 129.242188 109.367188 129.242188 C 122.28125 129.242188 132.792969 118.710938 132.792969 105.769531 C 132.792969 92.832031 122.28125 82.300781 109.367188 82.300781 Z M 109.367188 82.300781 "/>
<path style=" stroke:none;fill-rule:nonzero;fill:rgb(0%,0%,0%);fill-opacity:1;" d="M 35.1875 35.363281 L 19.570312 35.363281 C 17.414062 35.363281 15.667969 33.609375 15.667969 31.449219 C 15.667969 29.292969 17.414062 27.539062 19.570312 27.539062 L 35.1875 27.539062 C 37.34375 27.539062 39.089844 29.292969 39.089844 31.449219 C 39.089844 33.609375 37.34375 35.363281 35.1875 35.363281 Z M 35.1875 35.363281 "/>
<path style=" stroke:none;fill-rule:nonzero;fill:rgb(0%,0%,0%);fill-opacity:1;" d="M 35.1875 66.65625 L 19.570312 66.65625 C 17.414062 66.65625 15.667969 64.902344 15.667969 62.742188 C 15.667969 60.585938 17.414062 58.832031 19.570312 58.832031 L 35.1875 58.832031 C 37.34375 58.832031 39.089844 60.585938 39.089844 62.742188 C 39.089844 64.902344 37.34375 66.65625 35.1875 66.65625 Z M 35.1875 66.65625 "/>
</g>
</svg>
