<?xml version="1.0" encoding="UTF-8"?>
<svg xmlns="http://www.w3.org/2000/svg" xmlns:xlink="http://www.w3.org/1999/xlink" width="187.5pt" height="187.499995pt" viewBox="0 0 187.5 187.499995" version="1.2">
<defs>
<clipPath id="clip1">
  <path d="M 0 0 L 186 0 L 186 186 L 0 186 Z M 0 0 "/>
</clipPath>
</defs>
<g id="surface1">
<g clip-path="url(#clip1)" clip-rule="nonzero">
<path style=" stroke:none;fill-rule:nonzero;fill:rgb(1.568604%,2.349854%,2.349854%);fill-opacity:1;" d="M 180.050781 99.335938 C 180.050781 101.046875 178.65625 102.441406 176.945312 102.441406 L 139.695312 102.441406 C 137.984375 102.441406 136.589844 101.046875 136.589844 99.335938 L 136.589844 86.921875 C 136.589844 85.210938 137.984375 83.816406 139.695312 83.816406 L 176.945312 83.816406 C 178.65625 83.816406 180.050781 85.210938 180.050781 86.921875 Z M 155.214844 124.171875 C 155.214844 127.589844 152.425781 130.378906 149.007812 130.378906 L 124.171875 130.378906 L 124.171875 127.277344 C 124.171875 122.136719 120 117.964844 114.859375 117.964844 L 96.234375 117.964844 L 96.234375 111.753906 L 114.859375 111.753906 C 120 111.753906 124.171875 107.582031 124.171875 102.441406 L 124.171875 96.234375 L 130.378906 96.234375 L 130.378906 99.335938 C 130.378906 104.480469 134.550781 108.652344 139.695312 108.652344 L 155.214844 108.652344 Z M 117.964844 139.695312 C 117.964844 141.402344 116.570312 142.796875 114.859375 142.796875 L 71.398438 142.796875 C 69.6875 142.796875 68.292969 141.402344 68.292969 139.695312 L 68.292969 127.277344 C 68.292969 125.566406 69.6875 124.171875 71.398438 124.171875 L 114.859375 124.171875 C 116.570312 124.171875 117.964844 125.566406 117.964844 127.277344 Z M 37.25 130.378906 C 33.832031 130.378906 31.042969 127.589844 31.042969 124.171875 L 31.042969 108.652344 L 46.566406 108.652344 C 51.707031 108.652344 55.878906 104.480469 55.878906 99.335938 L 55.878906 96.234375 L 62.085938 96.234375 L 62.085938 102.441406 C 62.085938 107.582031 66.257812 111.753906 71.398438 111.753906 L 90.023438 111.753906 L 90.023438 117.964844 L 71.398438 117.964844 C 66.257812 117.964844 62.085938 122.136719 62.085938 127.277344 L 62.085938 130.378906 Z M 6.207031 99.335938 L 6.207031 86.921875 C 6.207031 85.210938 7.601562 83.816406 9.3125 83.816406 L 46.566406 83.816406 C 48.273438 83.816406 49.667969 85.210938 49.667969 86.921875 L 49.667969 99.335938 C 49.667969 101.046875 48.273438 102.441406 46.566406 102.441406 L 9.3125 102.441406 C 7.601562 102.441406 6.207031 101.046875 6.207031 99.335938 Z M 68.292969 83.816406 C 68.292969 82.105469 69.6875 80.710938 71.398438 80.710938 L 114.859375 80.710938 C 116.570312 80.710938 117.964844 82.105469 117.964844 83.816406 L 117.964844 102.441406 C 117.964844 104.152344 116.570312 105.546875 114.859375 105.546875 L 71.398438 105.546875 C 69.6875 105.546875 68.292969 104.152344 68.292969 102.441406 Z M 117.964844 164.527344 L 117.964844 176.945312 C 117.964844 178.65625 116.570312 180.050781 114.859375 180.050781 L 71.398438 180.050781 C 69.6875 180.050781 68.292969 178.65625 68.292969 176.945312 L 68.292969 164.527344 C 68.292969 162.816406 69.6875 161.421875 71.398438 161.421875 L 114.859375 161.421875 C 116.570312 161.421875 117.964844 162.816406 117.964844 164.527344 Z M 111.753906 55.878906 L 74.503906 55.878906 L 74.503906 43.460938 C 74.503906 36.609375 80.070312 31.042969 86.921875 31.042969 L 99.335938 31.042969 C 106.1875 31.042969 111.753906 36.609375 111.753906 43.460938 Z M 93.128906 6.207031 C 98.269531 6.207031 102.441406 10.378906 102.441406 15.523438 C 102.441406 20.664062 98.269531 24.835938 93.128906 24.835938 C 87.988281 24.835938 83.816406 20.664062 83.816406 15.523438 C 83.816406 10.378906 87.988281 6.207031 93.128906 6.207031 Z M 176.945312 77.609375 L 161.421875 77.609375 L 161.421875 58.980469 C 161.421875 50.421875 154.464844 43.460938 145.902344 43.460938 L 117.964844 43.460938 C 117.964844 35.082031 112.410156 27.988281 104.792969 25.660156 C 107.160156 22.929688 108.652344 19.414062 108.652344 15.523438 C 108.652344 6.960938 101.691406 0 93.128906 0 C 84.566406 0 77.609375 6.960938 77.609375 15.523438 C 77.609375 19.414062 79.097656 22.929688 81.464844 25.660156 C 73.847656 27.988281 68.292969 35.082031 68.292969 43.460938 L 68.292969 55.878906 C 68.292969 59.296875 71.082031 62.085938 74.503906 62.085938 L 111.753906 62.085938 C 115.175781 62.085938 117.964844 59.296875 117.964844 55.878906 L 117.964844 49.667969 L 145.902344 49.667969 C 151.042969 49.667969 155.214844 53.839844 155.214844 58.980469 L 155.214844 77.609375 L 139.695312 77.609375 C 134.550781 77.609375 130.378906 81.777344 130.378906 86.921875 L 130.378906 90.023438 L 124.171875 90.023438 L 124.171875 83.816406 C 124.171875 78.675781 120 74.503906 114.859375 74.503906 L 71.398438 74.503906 C 66.257812 74.503906 62.085938 78.675781 62.085938 83.816406 L 62.085938 90.023438 L 55.878906 90.023438 L 55.878906 86.921875 C 55.878906 81.777344 51.707031 77.609375 46.566406 77.609375 L 9.3125 77.609375 C 4.171875 77.609375 0 81.777344 0 86.921875 L 0 99.335938 C 0 104.480469 4.171875 108.652344 9.3125 108.652344 L 24.835938 108.652344 L 24.835938 124.171875 C 24.835938 131.023438 30.398438 136.589844 37.25 136.589844 L 62.085938 136.589844 L 62.085938 139.695312 C 62.085938 144.835938 66.257812 149.007812 71.398438 149.007812 L 90.023438 149.007812 L 90.023438 155.214844 L 71.398438 155.214844 C 66.257812 155.214844 62.085938 159.386719 62.085938 164.527344 L 62.085938 176.945312 C 62.085938 182.085938 66.257812 186.257812 71.398438 186.257812 L 114.859375 186.257812 C 120 186.257812 124.171875 182.085938 124.171875 176.945312 L 124.171875 164.527344 C 124.171875 159.386719 120 155.214844 114.859375 155.214844 L 96.234375 155.214844 L 96.234375 149.007812 L 114.859375 149.007812 C 120 149.007812 124.171875 144.835938 124.171875 139.695312 L 124.171875 136.589844 L 149.007812 136.589844 C 155.859375 136.589844 161.421875 131.023438 161.421875 124.171875 L 161.421875 108.652344 L 176.945312 108.652344 C 182.085938 108.652344 186.257812 104.480469 186.257812 99.335938 L 186.257812 86.921875 C 186.257812 81.777344 182.085938 77.609375 176.945312 77.609375 "/>
</g>
</g>
</svg>
